<svg width="26" height="25" viewBox="0 0 26 25" fill="none" xmlns="http://www.w3.org/2000/svg">
<path d="M19.2498 10.4167H15.0832V6.25008C15.0832 5.69755 14.8637 5.16764 14.473 4.77694C14.0823 4.38624 13.5524 4.16675 12.9998 4.16675C12.4473 4.16675 11.9174 4.38624 11.5267 4.77694C11.136 5.16764 10.9165 5.69755 10.9165 6.25008L10.9905 10.4167H6.74984C6.1973 10.4167 5.6674 10.6362 5.2767 11.0269C4.886 11.4176 4.6665 11.9475 4.6665 12.5001C4.6665 13.0526 4.886 13.5825 5.2767 13.9732C5.6674 14.3639 6.1973 14.5834 6.74984 14.5834L10.9905 14.5095L10.9165 18.7501C10.9165 19.3026 11.136 19.8325 11.5267 20.2232C11.9174 20.6139 12.4473 20.8334 12.9998 20.8334C13.5524 20.8334 14.0823 20.6139 14.473 20.2232C14.8637 19.8325 15.0832 19.3026 15.0832 18.7501V14.5095L19.2498 14.5834C19.8024 14.5834 20.3323 14.3639 20.723 13.9732C21.1137 13.5825 21.3332 13.0526 21.3332 12.5001C21.3332 11.9475 21.1137 11.4176 20.723 11.0269C20.3323 10.6362 19.8024 10.4167 19.2498 10.4167Z" fill="black"/>
</svg>
