<svg width="47" height="47" viewBox="0 0 47 47" fill="none" xmlns="http://www.w3.org/2000/svg">
<path d="M11.9999 13.9167H21.5833C22.0916 13.9167 22.5791 14.1187 22.9385 14.4781C23.298 14.8376 23.4999 15.3251 23.4999 15.8334C23.4999 16.3417 23.298 16.8293 22.9385 17.1887C22.5791 17.5482 22.0916 17.7501 21.5833 17.7501H11.9999C11.4916 17.7501 11.0041 17.5482 10.6446 17.1887C10.2852 16.8293 10.0833 16.3417 10.0833 15.8334C10.0833 15.3251 10.2852 14.8376 10.6446 14.4781C11.0041 14.1187 11.4916 13.9167 11.9999 13.9167ZM25.4166 29.2501H34.9999C35.5083 29.2501 35.9958 29.452 36.3552 29.8115C36.7147 30.1709 36.9166 30.6584 36.9166 31.1668C36.9166 31.6751 36.7147 32.1626 36.3552 32.5221C35.9958 32.8815 35.5083 33.0834 34.9999 33.0834H25.4166C24.9083 33.0834 24.4207 32.8815 24.0613 32.5221C23.7019 32.1626 23.4999 31.6751 23.4999 31.1668C23.4999 30.6584 23.7019 30.1709 24.0613 29.8115C24.4207 29.452 24.9083 29.2501 25.4166 29.2501ZM11.9999 21.5834H34.9999C35.5083 21.5834 35.9958 21.7854 36.3552 22.1448C36.7147 22.5042 36.9166 22.9918 36.9166 23.5001C36.9166 24.0084 36.7147 24.4959 36.3552 24.8554C35.9958 25.2148 35.5083 25.4168 34.9999 25.4168H11.9999C11.4916 25.4168 11.0041 25.2148 10.6446 24.8554C10.2852 24.4959 10.0833 24.0084 10.0833 23.5001C10.0833 22.9918 10.2852 22.5042 10.6446 22.1448C11.0041 21.7854 11.4916 21.5834 11.9999 21.5834Z" fill="white"/>
</svg>
