<svg width="41" height="41" viewBox="0 0 41 41" fill="none" xmlns="http://www.w3.org/2000/svg">
<path d="M17.1665 3.83325C15.0808 3.83437 13.0244 4.32478 11.1627 5.26507C9.30096 6.20536 7.68577 7.5693 6.44696 9.24727C5.20815 10.9252 4.38027 12.8704 4.02985 14.9265C3.67944 16.9826 3.81627 19.0922 4.42934 21.0858C5.04242 23.0794 6.11464 24.9013 7.55982 26.4052C9.00501 27.9091 10.7829 29.0529 12.7505 29.7449C14.7181 30.4368 16.8206 30.6574 18.889 30.3891C20.9573 30.1208 22.9339 29.371 24.6599 28.1999L32.8999 36.4333C33.1287 36.6789 33.4047 36.8759 33.7114 37.0125C34.0181 37.1492 34.3491 37.2226 34.6848 37.2286C35.0205 37.2345 35.3539 37.1727 35.6652 37.047C35.9765 36.9213 36.2593 36.7341 36.4967 36.4967C36.7341 36.2593 36.9212 35.9765 37.0469 35.6652C37.1727 35.354 37.2344 35.0205 37.2285 34.6848C37.2226 34.3492 37.1491 34.0181 37.0125 33.7115C36.8758 33.4048 36.6788 33.1288 36.4332 32.8999L28.1999 24.6599C29.562 22.6552 30.3519 20.3171 30.4847 17.897C30.6175 15.477 30.0881 13.0665 28.9535 10.9248C27.8189 8.78307 26.1219 6.99113 24.0451 5.74164C21.9683 4.49215 19.5902 3.83237 17.1665 3.83325ZM8.83321 17.1666C8.83321 14.9564 9.71118 12.8368 11.274 11.274C12.8368 9.71123 14.9564 8.83325 17.1665 8.83325C19.3767 8.83325 21.4963 9.71123 23.0591 11.274C24.6219 12.8368 25.4999 14.9564 25.4999 17.1666C25.4999 19.3767 24.6219 21.4963 23.0591 23.0591C21.4963 24.6219 19.3767 25.4999 17.1665 25.4999C14.9564 25.4999 12.8368 24.6219 11.274 23.0591C9.71118 21.4963 8.83321 19.3767 8.83321 17.1666Z" fill="white"/>
</svg>
