<svg width="30" height="30" viewBox="0 0 30 30" fill="none" xmlns="http://www.w3.org/2000/svg">
<g clip-path="url(#clip0_1250_317)">
<path fill-rule="evenodd" clip-rule="evenodd" d="M16.3251 20.075C15.9736 20.4261 15.497 20.6233 15.0001 20.6233C14.5032 20.6233 14.0267 20.4261 13.6751 20.075L6.60262 13.005C6.25104 12.6532 6.05359 12.1762 6.05371 11.6789C6.05383 11.1816 6.2515 10.7047 6.60324 10.3531C6.95499 10.0015 7.43199 9.80408 7.92931 9.8042C8.42664 9.80432 8.90354 10.002 9.25512 10.3537L15.0001 16.0987L20.7451 10.3537C21.0986 10.012 21.5721 9.8228 22.0638 9.82684C22.5554 9.83088 23.0257 10.0278 23.3736 10.3753C23.7214 10.7228 23.9188 11.193 23.9233 11.6846C23.9278 12.1762 23.739 12.6499 23.3976 13.0037L16.3264 20.0762L16.3251 20.075Z" fill="#CCCCCC"/>
</g>
<defs>
<clipPath id="clip0_1250_317">
<rect width="30" height="30" fill="white"/>
</clipPath>
</defs>
</svg>
