<svg width="77" height="72" viewBox="0 0 77 72" fill="none" xmlns="http://www.w3.org/2000/svg">
<path d="M25.3037 4.38867H51.7588C61.8369 4.38867 70.0254 12.5771 70.0254 22.6553V49.1104C70.0254 53.955 68.1009 58.6011 64.6752 62.0268C61.2496 65.4524 56.6034 67.377 51.7588 67.377H25.3037C15.2256 67.377 7.03711 59.1885 7.03711 49.1104V22.6553C7.03711 17.8107 8.96162 13.1645 12.3873 9.73884C15.8129 6.31318 20.4591 4.38867 25.3037 4.38867ZM24.6738 10.6875C21.6668 10.6875 18.783 11.882 16.6567 14.0083C14.5305 16.1346 13.3359 19.0184 13.3359 22.0254V49.7402C13.3359 56.0076 18.4065 61.0781 24.6738 61.0781H52.3887C55.3957 61.0781 58.2795 59.8836 60.4058 57.7573C62.532 55.6311 63.7266 52.7472 63.7266 49.7402V22.0254C63.7266 15.7581 58.656 10.6875 52.3887 10.6875H24.6738ZM55.0657 15.4116C56.1098 15.4116 57.1111 15.8264 57.8494 16.5647C58.5877 17.303 59.0024 18.3043 59.0024 19.3484C59.0024 20.3925 58.5877 21.3938 57.8494 22.1321C57.1111 22.8704 56.1098 23.2852 55.0657 23.2852C54.0216 23.2852 53.0202 22.8704 52.282 22.1321C51.5437 21.3938 51.1289 20.3925 51.1289 19.3484C51.1289 18.3043 51.5437 17.303 52.282 16.5647C53.0202 15.8264 54.0216 15.4116 55.0657 15.4116ZM38.5312 20.1357C42.7076 20.1357 46.713 21.7948 49.6661 24.748C52.6193 27.7011 54.2783 31.7064 54.2783 35.8828C54.2783 40.0592 52.6193 44.0645 49.6661 47.0177C46.713 49.9708 42.7076 51.6299 38.5312 51.6299C34.3549 51.6299 30.3495 49.9708 27.3964 47.0177C24.4432 44.0645 22.7842 40.0592 22.7842 35.8828C22.7842 31.7064 24.4432 27.7011 27.3964 24.748C30.3495 21.7948 34.3549 20.1357 38.5312 20.1357ZM38.5312 26.4346C36.0254 26.4346 33.6222 27.43 31.8503 29.2019C30.0784 30.9738 29.083 33.377 29.083 35.8828C29.083 38.3886 30.0784 40.7918 31.8503 42.5637C33.6222 44.3356 36.0254 45.3311 38.5312 45.3311C41.0371 45.3311 43.4403 44.3356 45.2122 42.5637C46.9841 40.7918 47.9795 38.3886 47.9795 35.8828C47.9795 33.377 46.9841 30.9738 45.2122 29.2019C43.4403 27.43 41.0371 26.4346 38.5312 26.4346Z" fill="black"/>
</svg>
